<svg width="259" height="91" viewBox="0 0 259 91" fill="none" xmlns="http://www.w3.org/2000/svg">
<rect x="258.5" y="1.4668" width="88.3932" height="257.331" rx="0.5" transform="rotate(90 258.5 1.4668)" fill="white" stroke="#626262"/>
<rect x="140.5" y="13" width="95.9785" height="54.6185" fill="white"/>
<mask id="path-3-outside-1_187_1267" maskUnits="userSpaceOnUse" x="150.195" y="46.1868" width="20" height="14" fill="black">
<rect fill="white" x="150.195" y="46.1868" width="20" height="14"/>
<path d="M150.294 56.3391V54.7571L154.021 46.5833H156.016L152.474 54.511V54.6165H155.787V51.8567H157.712V54.6165H159.241V56.3391H157.712V59.1868H155.787V56.3391H150.294ZM160.718 59.1868L164.049 54.2913L160.973 49.7737H163.108L165.218 53.0344H165.323L167.415 49.7737H169.56L166.475 54.344L169.806 59.1868H167.67L165.323 55.6975H165.165L162.862 59.1868H160.718Z"/>
</mask>
<path d="M150.294 56.3391V54.7571L154.021 46.5833H156.016L152.474 54.511V54.6165H155.787V51.8567H157.712V54.6165H159.241V56.3391H157.712V59.1868H155.787V56.3391H150.294ZM160.718 59.1868L164.049 54.2913L160.973 49.7737H163.108L165.218 53.0344H165.323L167.415 49.7737H169.56L166.475 54.344L169.806 59.1868H167.67L165.323 55.6975H165.165L162.862 59.1868H160.718Z" fill="black"/>
<path d="M150.294 56.3391H150.275V56.3583H150.294V56.3391ZM150.294 54.7571L150.275 54.7483V54.7571H150.294ZM154.021 46.5833V46.564H154.008L154.003 46.5753L154.021 46.5833ZM156.016 46.5833L156.033 46.5911L156.045 46.564H156.016V46.5833ZM152.474 54.511L152.454 54.5024V54.511H152.474ZM152.474 54.6165H152.454V54.6357H152.474V54.6165ZM155.787 54.6165V54.6357H155.806V54.6165H155.787ZM155.787 51.8567V51.8375H155.768V51.8567H155.787ZM157.712 51.8567H157.731V51.8375H157.712V51.8567ZM157.712 54.6165H157.693V54.6357H157.712V54.6165ZM159.241 54.6165H159.26V54.5972H159.241V54.6165ZM159.241 56.3391V56.3583H159.26V56.3391H159.241ZM157.712 56.3391V56.3199H157.693V56.3391H157.712ZM157.712 59.1868V59.206H157.731V59.1868H157.712ZM155.787 59.1868H155.768V59.206H155.787V59.1868ZM155.787 56.3391H155.806V56.3199H155.787V56.3391ZM150.294 56.3391H150.313V54.7571H150.294H150.275V56.3391H150.294ZM150.294 54.7571L150.311 54.7651L154.038 46.5912L154.021 46.5833L154.003 46.5753L150.276 54.7491L150.294 54.7571ZM154.021 46.5833V46.6025H156.016V46.5833V46.564H154.021V46.5833ZM156.016 46.5833L155.998 46.5754L152.456 54.5031L152.474 54.511L152.491 54.5188L156.033 46.5911L156.016 46.5833ZM152.474 54.511H152.454V54.6165H152.474H152.493V54.511H152.474ZM152.474 54.6165V54.6357H155.787V54.6165V54.5972H152.474V54.6165ZM155.787 54.6165H155.806V51.8567H155.787H155.768V54.6165H155.787ZM155.787 51.8567V51.8759H157.712V51.8567V51.8375H155.787V51.8567ZM157.712 51.8567H157.693V54.6165H157.712H157.731V51.8567H157.712ZM157.712 54.6165V54.6357H159.241V54.6165V54.5972H157.712V54.6165ZM159.241 54.6165H159.222V56.3391H159.241H159.26V54.6165H159.241ZM159.241 56.3391V56.3199H157.712V56.3391V56.3583H159.241V56.3391ZM157.712 56.3391H157.693V59.1868H157.712H157.731V56.3391H157.712ZM157.712 59.1868V59.1675H155.787V59.1868V59.206H157.712V59.1868ZM155.787 59.1868H155.806V56.3391H155.787H155.768V59.1868H155.787ZM155.787 56.3391V56.3199H150.294V56.3391V56.3583H155.787V56.3391ZM160.718 59.1868L160.702 59.1759L160.681 59.206H160.718V59.1868ZM164.049 54.2913L164.065 54.3021L164.072 54.2913L164.065 54.2804L164.049 54.2913ZM160.973 49.7737V49.7545H160.936L160.957 49.7845L160.973 49.7737ZM163.108 49.7737L163.125 49.7632L163.119 49.7545H163.108V49.7737ZM165.218 53.0344L165.202 53.0449L165.207 53.0537H165.218V53.0344ZM165.323 53.0344V53.0537H165.334L165.339 53.0448L165.323 53.0344ZM167.415 49.7737V49.7545H167.405L167.399 49.7633L167.415 49.7737ZM169.56 49.7737L169.576 49.7844L169.596 49.7545H169.56V49.7737ZM166.475 54.344L166.459 54.3332L166.451 54.3441L166.459 54.3549L166.475 54.344ZM169.806 59.1868V59.206H169.842L169.822 59.1759L169.806 59.1868ZM167.67 59.1868L167.654 59.1975L167.66 59.206H167.67V59.1868ZM165.323 55.6975L165.339 55.6868L165.333 55.6783H165.323V55.6975ZM165.165 55.6975V55.6783H165.155L165.149 55.6869L165.165 55.6975ZM162.862 59.1868V59.206H162.873L162.878 59.1974L162.862 59.1868ZM160.718 59.1868L160.734 59.1976L164.065 54.3021L164.049 54.2913L164.033 54.2804L160.702 59.1759L160.718 59.1868ZM164.049 54.2913L164.065 54.2804L160.989 49.7629L160.973 49.7737L160.957 49.7845L164.033 54.3021L164.049 54.2913ZM160.973 49.7737V49.7929H163.108V49.7737V49.7545H160.973V49.7737ZM163.108 49.7737L163.092 49.7841L165.202 53.0449L165.218 53.0344L165.234 53.024L163.125 49.7632L163.108 49.7737ZM165.218 53.0344V53.0537H165.323V53.0344V53.0152H165.218V53.0344ZM165.323 53.0344L165.339 53.0448L167.431 49.7841L167.415 49.7737L167.399 49.7633L165.307 53.024L165.323 53.0344ZM167.415 49.7737V49.7929H169.56V49.7737V49.7545H167.415V49.7737ZM169.56 49.7737L169.544 49.7629L166.459 54.3332L166.475 54.344L166.491 54.3548L169.576 49.7844L169.56 49.7737ZM166.475 54.344L166.459 54.3549L169.79 59.1977L169.806 59.1868L169.822 59.1759L166.49 54.3331L166.475 54.344ZM169.806 59.1868V59.1675H167.67V59.1868V59.206H169.806V59.1868ZM167.67 59.1868L167.686 59.176L165.339 55.6868L165.323 55.6975L165.307 55.7082L167.654 59.1975L167.67 59.1868ZM165.323 55.6975V55.6783H165.165V55.6975V55.7167H165.323V55.6975ZM165.165 55.6975L165.149 55.6869L162.846 59.1762L162.862 59.1868L162.878 59.1974L165.181 55.7081L165.165 55.6975ZM162.862 59.1868V59.1675H160.718V59.1868V59.206H162.862V59.1868Z" fill="#626262" mask="url(#path-3-outside-1_187_1267)"/>
<mask id="path-5-outside-2_187_1267" maskUnits="userSpaceOnUse" x="150.195" y="20.7097" width="64" height="10" fill="black">
<rect fill="white" x="150.195" y="20.7097" width="64" height="10"/>
<path d="M150.296 29.7097V22.0073H153.058C154.455 22.0073 155.412 22.9206 155.412 24.3181C155.412 25.7045 154.411 26.6618 153.058 26.6618H151.187V29.7097H150.296ZM151.187 25.8695H152.98C153.905 25.8695 154.499 25.2093 154.499 24.3181C154.499 23.4378 153.905 22.7996 152.98 22.7996H151.187V25.8695ZM159.043 29.8528C157.359 29.8528 156.193 28.6094 156.193 26.8598C156.193 25.0993 157.359 23.8449 158.977 23.8449C160.176 23.8449 160.814 24.6151 160.99 24.9122H161.056V23.988H161.926V29.7097H161.089V28.8074H161.023C160.88 29.0165 160.286 29.8528 159.043 29.8528ZM159.098 29.0715C160.341 29.0715 161.089 28.0592 161.089 26.8598C161.089 25.4514 160.209 24.6372 159.076 24.6372C157.898 24.6372 157.084 25.5614 157.084 26.8598C157.084 28.2023 157.898 29.0715 159.098 29.0715ZM163.8 29.7097V23.988H164.658V25.0553H164.724C164.889 24.5711 165.451 23.988 166.287 23.988H166.771V24.8572H166.298C165.253 24.8572 164.669 25.6715 164.669 26.7608V29.7097H163.8ZM170.439 29.7097C169.383 29.7097 168.734 29.1375 168.734 27.9822V24.7252H167.656V23.988H168.514C168.668 23.988 168.789 23.8889 168.789 23.7019V22.3264H169.603V23.988H171.364V24.7252H169.603V27.9712C169.603 28.5874 169.834 28.9505 170.495 28.9505H171.287V29.7097H170.439ZM172.902 29.7097V23.988H173.771V24.8242H173.837C174.079 24.3071 174.695 23.8449 175.586 23.8449C176.918 23.8449 177.721 24.8462 177.721 26.1116V29.7097H176.852V26.1666C176.852 25.2533 176.181 24.6592 175.377 24.6592C174.475 24.6592 173.771 25.3524 173.771 26.2987V29.7097H172.902ZM181.621 29.8528C180.289 29.8528 179.486 28.8515 179.486 27.5861V23.988H180.355V27.5531C180.355 28.4663 181.026 29.0605 181.83 29.0605C182.732 29.0605 183.436 28.3673 183.436 27.421V23.988H184.305V29.7097H183.436V28.8735H183.37C183.128 29.3906 182.512 29.8528 181.621 29.8528ZM186.172 29.7097V23.988H187.042V24.8132H187.108C187.383 24.285 187.933 23.8449 188.78 23.8449C189.638 23.8449 190.266 24.263 190.585 24.8902H190.662C191.047 24.153 191.674 23.8449 192.477 23.8449C193.754 23.8449 194.579 24.7472 194.579 26.0016V29.7097H193.71V26.2877C193.71 25.2093 193.17 24.6592 192.323 24.6592C191.52 24.6592 190.816 25.2313 190.816 26.2987V29.7097H189.946V26.1226C189.946 25.2093 189.33 24.6592 188.527 24.6592C187.724 24.6592 187.042 25.2974 187.042 26.2657V29.7097H186.172ZM199.328 29.8528C198.084 29.8528 197.49 29.0165 197.347 28.8074H197.281V29.7097H196.445V21.4572H197.314V24.9122H197.38C197.556 24.6151 198.195 23.8449 199.394 23.8449C201.011 23.8449 202.178 25.0993 202.178 26.8598C202.178 28.6094 201.011 29.8528 199.328 29.8528ZM199.273 29.0715C200.472 29.0715 201.286 28.2023 201.286 26.8598C201.286 25.5614 200.472 24.6372 199.295 24.6372C198.161 24.6372 197.281 25.4514 197.281 26.8598C197.281 28.0592 198.029 29.0715 199.273 29.0715ZM206.14 29.8528C204.391 29.8528 203.28 28.5654 203.28 26.8488C203.28 25.0223 204.523 23.8449 206.085 23.8449C207.824 23.8449 208.858 25.1213 208.858 26.7718V27.1569H204.193C204.237 28.3013 204.974 29.0605 206.151 29.0605C206.911 29.0605 207.637 28.6974 207.901 28.0262H208.803C208.484 29.0935 207.483 29.8528 206.14 29.8528ZM204.215 26.3867H207.934C207.857 25.2423 207.054 24.6372 206.085 24.6372C205.128 24.6372 204.303 25.3304 204.215 26.3867ZM210.403 29.7097V23.988H211.262V25.0553H211.328C211.493 24.5711 212.054 23.988 212.89 23.988H213.374V24.8572H212.901C211.856 24.8572 211.273 25.6715 211.273 26.7608V29.7097H210.403Z"/>
</mask>
<path d="M150.296 29.7097V22.0073H153.058C154.455 22.0073 155.412 22.9206 155.412 24.3181C155.412 25.7045 154.411 26.6618 153.058 26.6618H151.187V29.7097H150.296ZM151.187 25.8695H152.98C153.905 25.8695 154.499 25.2093 154.499 24.3181C154.499 23.4378 153.905 22.7996 152.98 22.7996H151.187V25.8695ZM159.043 29.8528C157.359 29.8528 156.193 28.6094 156.193 26.8598C156.193 25.0993 157.359 23.8449 158.977 23.8449C160.176 23.8449 160.814 24.6151 160.99 24.9122H161.056V23.988H161.926V29.7097H161.089V28.8074H161.023C160.88 29.0165 160.286 29.8528 159.043 29.8528ZM159.098 29.0715C160.341 29.0715 161.089 28.0592 161.089 26.8598C161.089 25.4514 160.209 24.6372 159.076 24.6372C157.898 24.6372 157.084 25.5614 157.084 26.8598C157.084 28.2023 157.898 29.0715 159.098 29.0715ZM163.8 29.7097V23.988H164.658V25.0553H164.724C164.889 24.5711 165.451 23.988 166.287 23.988H166.771V24.8572H166.298C165.253 24.8572 164.669 25.6715 164.669 26.7608V29.7097H163.8ZM170.439 29.7097C169.383 29.7097 168.734 29.1375 168.734 27.9822V24.7252H167.656V23.988H168.514C168.668 23.988 168.789 23.8889 168.789 23.7019V22.3264H169.603V23.988H171.364V24.7252H169.603V27.9712C169.603 28.5874 169.834 28.9505 170.495 28.9505H171.287V29.7097H170.439ZM172.902 29.7097V23.988H173.771V24.8242H173.837C174.079 24.3071 174.695 23.8449 175.586 23.8449C176.918 23.8449 177.721 24.8462 177.721 26.1116V29.7097H176.852V26.1666C176.852 25.2533 176.181 24.6592 175.377 24.6592C174.475 24.6592 173.771 25.3524 173.771 26.2987V29.7097H172.902ZM181.621 29.8528C180.289 29.8528 179.486 28.8515 179.486 27.5861V23.988H180.355V27.5531C180.355 28.4663 181.026 29.0605 181.83 29.0605C182.732 29.0605 183.436 28.3673 183.436 27.421V23.988H184.305V29.7097H183.436V28.8735H183.37C183.128 29.3906 182.512 29.8528 181.621 29.8528ZM186.172 29.7097V23.988H187.042V24.8132H187.108C187.383 24.285 187.933 23.8449 188.78 23.8449C189.638 23.8449 190.266 24.263 190.585 24.8902H190.662C191.047 24.153 191.674 23.8449 192.477 23.8449C193.754 23.8449 194.579 24.7472 194.579 26.0016V29.7097H193.71V26.2877C193.71 25.2093 193.17 24.6592 192.323 24.6592C191.52 24.6592 190.816 25.2313 190.816 26.2987V29.7097H189.946V26.1226C189.946 25.2093 189.33 24.6592 188.527 24.6592C187.724 24.6592 187.042 25.2974 187.042 26.2657V29.7097H186.172ZM199.328 29.8528C198.084 29.8528 197.49 29.0165 197.347 28.8074H197.281V29.7097H196.445V21.4572H197.314V24.9122H197.38C197.556 24.6151 198.195 23.8449 199.394 23.8449C201.011 23.8449 202.178 25.0993 202.178 26.8598C202.178 28.6094 201.011 29.8528 199.328 29.8528ZM199.273 29.0715C200.472 29.0715 201.286 28.2023 201.286 26.8598C201.286 25.5614 200.472 24.6372 199.295 24.6372C198.161 24.6372 197.281 25.4514 197.281 26.8598C197.281 28.0592 198.029 29.0715 199.273 29.0715ZM206.14 29.8528C204.391 29.8528 203.28 28.5654 203.28 26.8488C203.28 25.0223 204.523 23.8449 206.085 23.8449C207.824 23.8449 208.858 25.1213 208.858 26.7718V27.1569H204.193C204.237 28.3013 204.974 29.0605 206.151 29.0605C206.911 29.0605 207.637 28.6974 207.901 28.0262H208.803C208.484 29.0935 207.483 29.8528 206.14 29.8528ZM204.215 26.3867H207.934C207.857 25.2423 207.054 24.6372 206.085 24.6372C205.128 24.6372 204.303 25.3304 204.215 26.3867ZM210.403 29.7097V23.988H211.262V25.0553H211.328C211.493 24.5711 212.054 23.988 212.89 23.988H213.374V24.8572H212.901C211.856 24.8572 211.273 25.6715 211.273 26.7608V29.7097H210.403Z" fill="black"/>
<path d="M150.296 29.7097H150.276V29.7289H150.296V29.7097ZM150.296 22.0073V21.9881H150.276V22.0073H150.296ZM151.187 26.6618V26.6425H151.168V26.6618H151.187ZM151.187 29.7097V29.7289H151.206V29.7097H151.187ZM151.187 25.8695H151.168V25.8888H151.187V25.8695ZM151.187 22.7996V22.7804H151.168V22.7996H151.187ZM150.296 29.7097H150.315V22.0073H150.296H150.276V29.7097H150.296ZM150.296 22.0073V22.0266H153.058V22.0073V21.9881H150.296V22.0073ZM153.058 22.0073V22.0266C153.752 22.0266 154.336 22.2534 154.745 22.6524C155.155 23.0514 155.393 23.6239 155.393 24.3181H155.412H155.431C155.431 23.6148 155.19 23.0319 154.772 22.6249C154.354 22.2179 153.76 21.9881 153.058 21.9881V22.0073ZM155.412 24.3181H155.393C155.393 25.6936 154.401 26.6425 153.058 26.6425V26.6618V26.681C154.421 26.681 155.431 25.7154 155.431 24.3181H155.412ZM153.058 26.6618V26.6425H151.187V26.6618V26.681H153.058V26.6618ZM151.187 26.6618H151.168V29.7097H151.187H151.206V26.6618H151.187ZM151.187 29.7097V29.6905H150.296V29.7097V29.7289H151.187V29.7097ZM151.187 25.8695V25.8888H152.98V25.8695V25.8503H151.187V25.8695ZM152.98 25.8695V25.8888C153.447 25.8888 153.832 25.7219 154.1 25.4413C154.368 25.1608 154.518 24.768 154.518 24.3181H154.499H154.48C154.48 24.7594 154.333 25.1423 154.072 25.4147C153.812 25.6871 153.438 25.8503 152.98 25.8503V25.8695ZM154.499 24.3181H154.518C154.518 23.8735 154.368 23.4889 154.1 23.2153C153.832 22.9416 153.447 22.7804 152.98 22.7804V22.7996V22.8188C153.438 22.8188 153.813 22.9767 154.073 23.2422C154.333 23.5077 154.48 23.8823 154.48 24.3181H154.499ZM152.98 22.7996V22.7804H151.187V22.7996V22.8188H152.98V22.7996ZM151.187 22.7996H151.168V25.8695H151.187H151.206V22.7996H151.187ZM160.99 24.9122L160.974 24.922L160.979 24.9315H160.99V24.9122ZM161.056 24.9122V24.9315H161.076V24.9122H161.056ZM161.056 23.988V23.9687H161.037V23.988H161.056ZM161.926 23.988H161.945V23.9687H161.926V23.988ZM161.926 29.7097V29.7289H161.945V29.7097H161.926ZM161.089 29.7097H161.07V29.7289H161.089V29.7097ZM161.089 28.8074H161.109V28.7882H161.089V28.8074ZM161.023 28.8074V28.7882H161.013L161.007 28.7966L161.023 28.8074ZM159.043 29.8528V29.8335C158.206 29.8335 157.499 29.5246 157 28.9991C156.502 28.4736 156.212 27.7303 156.212 26.8598H156.193H156.174C156.174 27.7389 156.467 28.4921 156.972 29.0256C157.478 29.5592 158.196 29.872 159.043 29.872V29.8528ZM156.193 26.8598H156.212C156.212 25.1085 157.371 23.8641 158.977 23.8641V23.8449V23.8257C157.347 23.8257 156.174 25.0901 156.174 26.8598H156.193ZM158.977 23.8449V23.8641C160.167 23.8641 160.8 24.6284 160.974 24.922L160.99 24.9122L161.007 24.9024C160.829 24.6019 160.185 23.8257 158.977 23.8257V23.8449ZM160.99 24.9122V24.9315H161.056V24.9122V24.893H160.99V24.9122ZM161.056 24.9122H161.076V23.988H161.056H161.037V24.9122H161.056ZM161.056 23.988V24.0072H161.926V23.988V23.9687H161.056V23.988ZM161.926 23.988H161.906V29.7097H161.926H161.945V23.988H161.926ZM161.926 29.7097V29.6905H161.089V29.7097V29.7289H161.926V29.7097ZM161.089 29.7097H161.109V28.8074H161.089H161.07V29.7097H161.089ZM161.089 28.8074V28.7882H161.023V28.8074V28.8267H161.089V28.8074ZM161.023 28.8074L161.007 28.7966C160.865 29.0044 160.276 29.8335 159.043 29.8335V29.8528V29.872C160.296 29.872 160.895 29.0286 161.039 28.8183L161.023 28.8074ZM159.098 29.0715V29.0908C159.725 29.0908 160.228 28.8352 160.574 28.4279C160.92 28.0209 161.109 27.4634 161.109 26.8598H161.089H161.07C161.07 27.4557 160.884 28.004 160.545 28.403C160.206 28.8017 159.714 29.0523 159.098 29.0523V29.0715ZM161.089 26.8598H161.109C161.109 26.1516 160.887 25.5908 160.521 25.2071C160.156 24.8233 159.647 24.6179 159.076 24.6179V24.6372V24.6564C159.638 24.6564 160.136 24.8582 160.494 25.2336C160.851 25.6091 161.07 26.1597 161.07 26.8598H161.089ZM159.076 24.6372V24.6179C158.482 24.6179 157.978 24.8512 157.624 25.2488C157.27 25.6462 157.065 26.2067 157.065 26.8598H157.084H157.103C157.103 26.2146 157.306 25.6637 157.653 25.2744C158 24.8852 158.492 24.6564 159.076 24.6564V24.6372ZM157.084 26.8598H157.065C157.065 27.5349 157.27 28.0928 157.627 28.4821C157.984 28.8715 158.493 29.0908 159.098 29.0908V29.0715V29.0523C158.503 29.0523 158.005 28.8369 157.655 28.4561C157.306 28.0752 157.103 27.5272 157.103 26.8598H157.084ZM163.8 29.7097H163.781V29.7289H163.8V29.7097ZM163.8 23.988V23.9687H163.781V23.988H163.8ZM164.658 23.988H164.678V23.9687H164.658V23.988ZM164.658 25.0553H164.639V25.0745H164.658V25.0553ZM164.724 25.0553V25.0745H164.738L164.743 25.0615L164.724 25.0553ZM166.771 23.988H166.79V23.9687H166.771V23.988ZM166.771 24.8572V24.8765H166.79V24.8572H166.771ZM164.669 29.7097V29.7289H164.689V29.7097H164.669ZM163.8 29.7097H163.819V23.988H163.8H163.781V29.7097H163.8ZM163.8 23.988V24.0072H164.658V23.988V23.9687H163.8V23.988ZM164.658 23.988H164.639V25.0553H164.658H164.678V23.988H164.658ZM164.658 25.0553V25.0745H164.724V25.0553V25.0361H164.658V25.0553ZM164.724 25.0553L164.743 25.0615C164.905 24.5839 165.46 24.0072 166.287 24.0072V23.988V23.9687C165.441 23.9687 164.874 24.5584 164.706 25.0491L164.724 25.0553ZM166.287 23.988V24.0072H166.771V23.988V23.9687H166.287V23.988ZM166.771 23.988H166.752V24.8572H166.771H166.79V23.988H166.771ZM166.771 24.8572V24.838H166.298V24.8572V24.8765H166.771V24.8572ZM166.298 24.8572V24.838C165.77 24.838 165.357 25.0439 165.077 25.3884C164.797 25.7324 164.65 26.2129 164.65 26.7608H164.669H164.689C164.689 26.2194 164.834 25.7481 165.107 25.4127C165.379 25.0776 165.781 24.8765 166.298 24.8765V24.8572ZM164.669 26.7608H164.65V29.7097H164.669H164.689V26.7608H164.669ZM164.669 29.7097V29.6905H163.8V29.7097V29.7289H164.669V29.7097ZM168.734 24.7252H168.753V24.706H168.734V24.7252ZM167.656 24.7252H167.636V24.7444H167.656V24.7252ZM167.656 23.988V23.9687H167.636V23.988H167.656ZM168.789 22.3264V22.3072H168.77V22.3264H168.789ZM169.603 22.3264H169.622V22.3072H169.603V22.3264ZM169.603 23.988H169.584V24.0072H169.603V23.988ZM171.364 23.988H171.383V23.9687H171.364V23.988ZM171.364 24.7252V24.7444H171.383V24.7252H171.364ZM169.603 24.7252V24.706H169.584V24.7252H169.603ZM171.287 28.9505H171.306V28.9313H171.287V28.9505ZM171.287 29.7097V29.7289H171.306V29.7097H171.287ZM170.439 29.7097V29.6905C169.915 29.6905 169.494 29.5484 169.204 29.2655C168.914 28.9826 168.753 28.5563 168.753 27.9822H168.734H168.715C168.715 28.5634 168.878 29.0009 169.177 29.293C169.476 29.585 169.908 29.7289 170.439 29.7289V29.7097ZM168.734 27.9822H168.753V24.7252H168.734H168.715V27.9822H168.734ZM168.734 24.7252V24.706H167.656V24.7252V24.7444H168.734V24.7252ZM167.656 24.7252H167.675V23.988H167.656H167.636V24.7252H167.656ZM167.656 23.988V24.0072H168.514V23.988V23.9687H167.656V23.988ZM168.514 23.988V24.0072C168.595 24.0072 168.669 23.9811 168.723 23.9288C168.776 23.8765 168.808 23.7997 168.808 23.7019H168.789H168.77C168.77 23.7911 168.741 23.8573 168.696 23.9013C168.65 23.9453 168.587 23.9687 168.514 23.9687V23.988ZM168.789 23.7019H168.808V22.3264H168.789H168.77V23.7019H168.789ZM168.789 22.3264V22.3457H169.603V22.3264V22.3072H168.789V22.3264ZM169.603 22.3264H169.584V23.988H169.603H169.622V22.3264H169.603ZM169.603 23.988V24.0072H171.364V23.988V23.9687H169.603V23.988ZM171.364 23.988H171.345V24.7252H171.364H171.383V23.988H171.364ZM171.364 24.7252V24.706H169.603V24.7252V24.7444H171.364V24.7252ZM169.603 24.7252H169.584V27.9712H169.603H169.622V24.7252H169.603ZM169.603 27.9712H169.584C169.584 28.2811 169.642 28.5313 169.787 28.7042C169.932 28.8779 170.161 28.9697 170.495 28.9697V28.9505V28.9313C170.168 28.9313 169.951 28.8415 169.816 28.6796C169.68 28.5169 169.622 28.2775 169.622 27.9712H169.603ZM170.495 28.9505V28.9697H171.287V28.9505V28.9313H170.495V28.9505ZM171.287 28.9505H171.268V29.7097H171.287H171.306V28.9505H171.287ZM171.287 29.7097V29.6905H170.439V29.7097V29.7289H171.287V29.7097ZM172.902 29.7097H172.882V29.7289H172.902V29.7097ZM172.902 23.988V23.9687H172.882V23.988H172.902ZM173.771 23.988H173.79V23.9687H173.771V23.988ZM173.771 24.8242H173.752V24.8434H173.771V24.8242ZM173.837 24.8242V24.8434H173.849L173.854 24.8324L173.837 24.8242ZM177.721 29.7097V29.7289H177.74V29.7097H177.721ZM176.852 29.7097H176.833V29.7289H176.852V29.7097ZM173.771 29.7097V29.7289H173.79V29.7097H173.771ZM172.902 29.7097H172.921V23.988H172.902H172.882V29.7097H172.902ZM172.902 23.988V24.0072H173.771V23.988V23.9687H172.902V23.988ZM173.771 23.988H173.752V24.8242H173.771H173.79V23.988H173.771ZM173.771 24.8242V24.8434H173.837V24.8242V24.805H173.771V24.8242ZM173.837 24.8242L173.854 24.8324C174.093 24.3225 174.702 23.8641 175.586 23.8641V23.8449V23.8257C174.688 23.8257 174.065 24.2916 173.819 24.8161L173.837 24.8242ZM175.586 23.8449V23.8641C176.247 23.8641 176.775 24.1124 177.139 24.5166C177.502 24.921 177.702 25.4829 177.702 26.1116H177.721H177.74C177.74 25.4749 177.538 24.9034 177.167 24.4909C176.796 24.0781 176.257 23.8257 175.586 23.8257V23.8449ZM177.721 26.1116H177.702V29.7097H177.721H177.74V26.1116H177.721ZM177.721 29.7097V29.6905H176.852V29.7097V29.7289H177.721V29.7097ZM176.852 29.7097H176.871V26.1666H176.852H176.833V29.7097H176.852ZM176.852 26.1666H176.871C176.871 25.2424 176.191 24.6399 175.377 24.6399V24.6592V24.6784C176.17 24.6784 176.833 25.2643 176.833 26.1666H176.852ZM175.377 24.6592V24.6399C174.464 24.6399 173.752 25.3419 173.752 26.2987H173.771H173.79C173.79 25.3628 174.486 24.6784 175.377 24.6784V24.6592ZM173.771 26.2987H173.752V29.7097H173.771H173.79V26.2987H173.771ZM173.771 29.7097V29.6905H172.902V29.7097V29.7289H173.771V29.7097ZM179.486 23.988V23.9687H179.467V23.988H179.486ZM180.355 23.988H180.374V23.9687H180.355V23.988ZM183.436 23.988V23.9687H183.417V23.988H183.436ZM184.305 23.988H184.325V23.9687H184.305V23.988ZM184.305 29.7097V29.7289H184.325V29.7097H184.305ZM183.436 29.7097H183.417V29.7289H183.436V29.7097ZM183.436 28.8735H183.455V28.8542H183.436V28.8735ZM183.37 28.8735V28.8542H183.358L183.353 28.8653L183.37 28.8735ZM181.621 29.8528V29.8335C180.96 29.8335 180.432 29.5853 180.068 29.1811C179.705 28.7766 179.505 28.2148 179.505 27.5861H179.486H179.467C179.467 28.2228 179.669 28.7942 180.04 29.2068C180.411 29.6196 180.95 29.872 181.621 29.872V29.8528ZM179.486 27.5861H179.505V23.988H179.486H179.467V27.5861H179.486ZM179.486 23.988V24.0072H180.355V23.988V23.9687H179.486V23.988ZM180.355 23.988H180.336V27.5531H180.355H180.374V23.988H180.355ZM180.355 27.5531H180.336C180.336 28.4773 181.016 29.0797 181.83 29.0797V29.0605V29.0413C181.037 29.0413 180.374 28.4553 180.374 27.5531H180.355ZM181.83 29.0605V29.0797C182.743 29.0797 183.455 28.3778 183.455 27.421H183.436H183.417C183.417 28.3569 182.721 29.0413 181.83 29.0413V29.0605ZM183.436 27.421H183.455V23.988H183.436H183.417V27.421H183.436ZM183.436 23.988V24.0072H184.305V23.988V23.9687H183.436V23.988ZM184.305 23.988H184.286V29.7097H184.305H184.325V23.988H184.305ZM184.305 29.7097V29.6905H183.436V29.7097V29.7289H184.305V29.7097ZM183.436 29.7097H183.455V28.8735H183.436H183.417V29.7097H183.436ZM183.436 28.8735V28.8542H183.37V28.8735V28.8927H183.436V28.8735ZM183.37 28.8735L183.353 28.8653C183.114 29.3752 182.505 29.8335 181.621 29.8335V29.8528V29.872C182.519 29.872 183.142 29.4061 183.388 28.8816L183.37 28.8735ZM186.172 29.7097H186.153V29.7289H186.172V29.7097ZM186.172 23.988V23.9687H186.153V23.988H186.172ZM187.042 23.988H187.061V23.9687H187.042V23.988ZM187.042 24.8132H187.022V24.8324H187.042V24.8132ZM187.108 24.8132V24.8324H187.119L187.125 24.8221L187.108 24.8132ZM190.585 24.8902L190.567 24.899L190.573 24.9095H190.585V24.8902ZM190.662 24.8902V24.9095H190.673L190.679 24.8991L190.662 24.8902ZM194.579 29.7097V29.7289H194.598V29.7097H194.579ZM193.71 29.7097H193.69V29.7289H193.71V29.7097ZM190.816 29.7097V29.7289H190.835V29.7097H190.816ZM189.946 29.7097H189.927V29.7289H189.946V29.7097ZM187.042 29.7097V29.7289H187.061V29.7097H187.042ZM186.172 29.7097H186.192V23.988H186.172H186.153V29.7097H186.172ZM186.172 23.988V24.0072H187.042V23.988V23.9687H186.172V23.988ZM187.042 23.988H187.022V24.8132H187.042H187.061V23.988H187.042ZM187.042 24.8132V24.8324H187.108V24.8132V24.794H187.042V24.8132ZM187.108 24.8132L187.125 24.8221C187.397 24.2998 187.941 23.8641 188.78 23.8641V23.8449V23.8257C187.925 23.8257 187.369 24.2703 187.091 24.8043L187.108 24.8132ZM188.78 23.8449V23.8641C189.631 23.8641 190.252 24.2784 190.567 24.899L190.585 24.8902L190.602 24.8815C190.279 24.2476 189.645 23.8257 188.78 23.8257V23.8449ZM190.585 24.8902V24.9095H190.662V24.8902V24.871H190.585V24.8902ZM190.662 24.8902L190.679 24.8991C190.87 24.5335 191.12 24.2751 191.422 24.1079C191.724 23.9407 192.078 23.8641 192.477 23.8641V23.8449V23.8257C192.073 23.8257 191.712 23.9032 191.403 24.0743C191.094 24.2455 190.839 24.5097 190.645 24.8813L190.662 24.8902ZM192.477 23.8449V23.8641C193.111 23.8641 193.631 24.0879 193.993 24.4661C194.355 24.8445 194.56 25.3786 194.56 26.0016H194.579H194.598C194.598 25.3701 194.39 24.826 194.021 24.4396C193.651 24.053 193.12 23.8257 192.477 23.8257V23.8449ZM194.579 26.0016H194.56V29.7097H194.579H194.598V26.0016H194.579ZM194.579 29.7097V29.6905H193.71V29.7097V29.7289H194.579V29.7097ZM193.71 29.7097H193.729V26.2877H193.71H193.69V29.7097H193.71ZM193.71 26.2877H193.729C193.729 25.7455 193.593 25.3332 193.349 25.0563C193.103 24.779 192.751 24.6399 192.323 24.6399V24.6592V24.6784C192.742 24.6784 193.083 24.8144 193.32 25.0818C193.556 25.3495 193.69 25.7515 193.69 26.2877H193.71ZM192.323 24.6592V24.6399C191.917 24.6399 191.535 24.7847 191.255 25.0651C190.974 25.3456 190.796 25.7606 190.796 26.2987H190.816H190.835C190.835 25.7694 191.009 25.3646 191.282 25.0923C191.554 24.8198 191.926 24.6784 192.323 24.6784V24.6592ZM190.816 26.2987H190.796V29.7097H190.816H190.835V26.2987H190.816ZM190.816 29.7097V29.6905H189.946V29.7097V29.7289H190.816V29.7097ZM189.946 29.7097H189.966V26.1226H189.946H189.927V29.7097H189.946ZM189.946 26.1226H189.966C189.966 25.6615 189.81 25.2905 189.551 25.0347C189.293 24.7791 188.933 24.6399 188.527 24.6399V24.6592V24.6784C188.924 24.6784 189.274 24.8144 189.524 25.0621C189.775 25.3097 189.927 25.6705 189.927 26.1226H189.946ZM188.527 24.6592V24.6399C187.713 24.6399 187.022 25.2874 187.022 26.2657H187.042H187.061C187.061 25.3073 187.735 24.6784 188.527 24.6784V24.6592ZM187.042 26.2657H187.022V29.7097H187.042H187.061V26.2657H187.042ZM187.042 29.7097V29.6905H186.172V29.7097V29.7289H187.042V29.7097ZM197.347 28.8074L197.363 28.7966L197.357 28.7882H197.347V28.8074ZM197.281 28.8074V28.7882H197.262V28.8074H197.281ZM197.281 29.7097V29.7289H197.3V29.7097H197.281ZM196.445 29.7097H196.426V29.7289H196.445V29.7097ZM196.445 21.4572V21.4379H196.426V21.4572H196.445ZM197.314 21.4572H197.333V21.4379H197.314V21.4572ZM197.314 24.9122H197.295V24.9315H197.314V24.9122ZM197.38 24.9122V24.9315H197.391L197.397 24.922L197.38 24.9122ZM199.328 29.8528V29.8335C198.094 29.8335 197.505 29.0044 197.363 28.7966L197.347 28.8074L197.331 28.8183C197.475 29.0286 198.074 29.872 199.328 29.872V29.8528ZM197.347 28.8074V28.7882H197.281V28.8074V28.8267H197.347V28.8074ZM197.281 28.8074H197.262V29.7097H197.281H197.3V28.8074H197.281ZM197.281 29.7097V29.6905H196.445V29.7097V29.7289H197.281V29.7097ZM196.445 29.7097H196.464V21.4572H196.445H196.426V29.7097H196.445ZM196.445 21.4572V21.4764H197.314V21.4572V21.4379H196.445V21.4572ZM197.314 21.4572H197.295V24.9122H197.314H197.333V21.4572H197.314ZM197.314 24.9122V24.9315H197.38V24.9122V24.893H197.314V24.9122ZM197.38 24.9122L197.397 24.922C197.571 24.6284 198.204 23.8641 199.394 23.8641V23.8449V23.8257C198.185 23.8257 197.542 24.6019 197.364 24.9024L197.38 24.9122ZM199.394 23.8449V23.8641C200.999 23.8641 202.159 25.1085 202.159 26.8598H202.178H202.197C202.197 25.0901 201.023 23.8257 199.394 23.8257V23.8449ZM202.178 26.8598H202.159C202.159 27.7303 201.868 28.4736 201.37 28.9991C200.872 29.5246 200.165 29.8335 199.328 29.8335V29.8528V29.872C200.175 29.872 200.892 29.5592 201.398 29.0256C201.904 28.4921 202.197 27.7389 202.197 26.8598H202.178ZM199.273 29.0715V29.0908C199.877 29.0908 200.386 28.8715 200.744 28.4821C201.101 28.0928 201.306 27.5349 201.306 26.8598H201.286H201.267C201.267 27.5272 201.065 28.0752 200.715 28.4561C200.366 28.8369 199.868 29.0523 199.273 29.0523V29.0715ZM201.286 26.8598H201.306C201.306 26.2067 201.101 25.6462 200.747 25.2488C200.392 24.8512 199.889 24.6179 199.295 24.6179V24.6372V24.6564C199.878 24.6564 200.371 24.8852 200.718 25.2744C201.065 25.6637 201.267 26.2146 201.267 26.8598H201.286ZM199.295 24.6372V24.6179C198.723 24.6179 198.215 24.8233 197.849 25.2071C197.483 25.5908 197.262 26.1516 197.262 26.8598H197.281H197.3C197.3 26.1597 197.519 25.6091 197.877 25.2336C198.235 24.8582 198.733 24.6564 199.295 24.6564V24.6372ZM197.281 26.8598H197.262C197.262 27.4634 197.45 28.0209 197.796 28.4279C198.142 28.8352 198.645 29.0908 199.273 29.0908V29.0715V29.0523C198.657 29.0523 198.164 28.8017 197.825 28.403C197.486 28.004 197.3 27.4557 197.3 26.8598H197.281ZM208.858 27.1569V27.1762H208.877V27.1569H208.858ZM204.193 27.1569V27.1377H204.173L204.174 27.1577L204.193 27.1569ZM207.901 28.0262V28.007H207.888L207.883 28.0192L207.901 28.0262ZM208.803 28.0262L208.822 28.0317L208.829 28.007H208.803V28.0262ZM204.215 26.3867L204.196 26.3851L204.194 26.4059H204.215V26.3867ZM207.934 26.3867V26.4059H207.955L207.953 26.3854L207.934 26.3867ZM206.14 29.8528V29.8335C205.271 29.8335 204.561 29.5136 204.068 28.9814C203.575 28.4491 203.299 27.703 203.299 26.8488H203.28H203.26C203.26 27.7112 203.54 28.4671 204.04 29.0076C204.54 29.5482 205.261 29.872 206.14 29.872V29.8528ZM203.28 26.8488H203.299C203.299 25.0323 204.534 23.8641 206.085 23.8641V23.8449V23.8257C204.512 23.8257 203.26 25.0122 203.26 26.8488H203.28ZM206.085 23.8449V23.8641C206.95 23.8641 207.638 24.1812 208.11 24.7023C208.582 25.2236 208.839 25.9505 208.839 26.7718H208.858H208.877C208.877 25.9426 208.618 25.206 208.138 24.6765C207.658 24.1468 206.96 23.8257 206.085 23.8257V23.8449ZM208.858 26.7718H208.839V27.1569H208.858H208.877V26.7718H208.858ZM208.858 27.1569V27.1377H204.193V27.1569V27.1762H208.858V27.1569ZM204.193 27.1569L204.174 27.1577C204.196 27.7338 204.393 28.2147 204.734 28.5515C205.075 28.8885 205.558 29.0797 206.151 29.0797V29.0605V29.0413C205.567 29.0413 205.093 28.8529 204.761 28.5242C204.428 28.1953 204.234 27.7244 204.212 27.1562L204.193 27.1569ZM206.151 29.0605V29.0797C206.916 29.0797 207.651 28.7141 207.919 28.0332L207.901 28.0262L207.883 28.0192C207.623 28.6807 206.906 29.0413 206.151 29.0413V29.0605ZM207.901 28.0262V28.0454H208.803V28.0262V28.007H207.901V28.0262ZM208.803 28.0262L208.785 28.0207C208.468 29.0791 207.475 29.8335 206.14 29.8335V29.8528V29.872C207.49 29.872 208.5 29.1079 208.822 28.0317L208.803 28.0262ZM204.215 26.3867V26.4059H207.934V26.3867V26.3675H204.215V26.3867ZM207.934 26.3867L207.953 26.3854C207.914 25.8088 207.692 25.3665 207.357 25.0684C207.021 24.7705 206.574 24.6179 206.085 24.6179V24.6372V24.6564C206.566 24.6564 207.004 24.8064 207.331 25.0972C207.658 25.3878 207.877 25.8203 207.915 26.388L207.934 26.3867ZM206.085 24.6372V24.6179C205.118 24.6179 204.285 25.3185 204.196 26.3851L204.215 26.3867L204.234 26.3883C204.321 25.3422 205.138 24.6564 206.085 24.6564V24.6372ZM210.403 29.7097H210.384V29.7289H210.403V29.7097ZM210.403 23.988V23.9687H210.384V23.988H210.403ZM211.262 23.988H211.281V23.9687H211.262V23.988ZM211.262 25.0553H211.242V25.0745H211.262V25.0553ZM211.328 25.0553V25.0745H211.341L211.346 25.0615L211.328 25.0553ZM213.374 23.988H213.394V23.9687H213.374V23.988ZM213.374 24.8572V24.8765H213.394V24.8572H213.374ZM211.273 29.7097V29.7289H211.292V29.7097H211.273ZM210.403 29.7097H210.423V23.988H210.403H210.384V29.7097H210.403ZM210.403 23.988V24.0072H211.262V23.988V23.9687H210.403V23.988ZM211.262 23.988H211.242V25.0553H211.262H211.281V23.988H211.262ZM211.262 25.0553V25.0745H211.328V25.0553V25.0361H211.262V25.0553ZM211.328 25.0553L211.346 25.0615C211.509 24.5839 212.063 24.0072 212.89 24.0072V23.988V23.9687C212.044 23.9687 211.477 24.5584 211.309 25.0491L211.328 25.0553ZM212.89 23.988V24.0072H213.374V23.988V23.9687H212.89V23.988ZM213.374 23.988H213.355V24.8572H213.374H213.394V23.988H213.374ZM213.374 24.8572V24.838H212.901V24.8572V24.8765H213.374V24.8572ZM212.901 24.8572V24.838C212.373 24.838 211.96 25.0439 211.68 25.3884C211.4 25.7324 211.253 26.2129 211.253 26.7608H211.273H211.292C211.292 26.2194 211.437 25.7481 211.71 25.4127C211.982 25.0776 212.384 24.8765 212.901 24.8765V24.8572ZM211.273 26.7608H211.253V29.7097H211.273H211.292V26.7608H211.273ZM211.273 29.7097V29.6905H210.403V29.7097V29.7289H211.273V29.7097Z" fill="#626262" mask="url(#path-5-outside-2_187_1267)"/>
<path d="M77.535 66.9362L77.551 66.5179L29.5101 27.5885" fill="#BFCDCE" fill-opacity="0.5"/>
<path d="M112.001 62.2948L63.9599 23.3654L29.5101 27.5885L29.4941 28.0068L77.535 66.9362L111.985 62.713L112.001 62.2948Z" fill="#BFCDCE" fill-opacity="0.5"/>
<path d="M77.551 66.5179L112.001 62.2948L77.551 66.5179Z" fill="#BFCDCE" fill-opacity="0.5"/>
<path d="M77.535 66.9362L77.551 66.5179M77.535 66.9362L29.4941 28.0068L29.5101 27.5885M77.535 66.9362L111.985 62.713L112.001 62.2948M77.551 66.5179L29.5101 27.5885M77.551 66.5179L112.001 62.2948M29.5101 27.5885L63.9599 23.3654L112.001 62.2948" stroke="black" stroke-width="0.4" stroke-linecap="round"/>
</svg>
